<svg xmlns="http://www.w3.org/2000/svg" width="450" height="405" viewBox="0 0 450 405">
  <style>
    @keyframes fadeIn {
      from { opacity: 0; transform: translateY(5px); }
      to { opacity: 1; transform: translateY(0); }
    }
    .card { animation: fadeIn 0.8s ease-in-out; }
  </style>
  <rect width="450" height="405" rx="6" fill="#0d1117" stroke="#30363d" stroke-width="1"/>
  <text x="225" y="24" text-anchor="middle" fill="#c9d1d9" font-size="14" font-weight="600" font-family="-apple-system,BlinkMacSystemFont,'Segoe UI',Helvetica,Arial,sans-serif">Top Contributed Repositories</text>
  <g class="card">
    
    <g transform="translate(0, 35)">
      <!-- Rank badge -->
      <g transform="translate(20, 8)">
        <rect width="40" height="26" rx="13" fill="#e4b669" opacity="0.15"/>
        <text x="20" y="17" text-anchor="middle" fill="#e4b669" font-size="12" font-weight="700" font-family="-apple-system,BlinkMacSystemFont,'Segoe UI',Helvetica,Arial,sans-serif">S</text>
      </g>
      <!-- Repo name -->
      <text x="72" y="22" fill="#c9d1d9" font-size="14" font-weight="600" font-family="-apple-system,BlinkMacSystemFont,'Segoe UI',Helvetica,Arial,sans-serif">InsightSoftwareConsortium/ITK</text>
      <!-- Stars -->
      <g transform="translate(72, 36)">
        <svg width="14" height="14" viewBox="0 0 16 16" fill="#8b949e">
          <path d="M8 .25a.75.75 0 01.673.418l1.882 3.815 4.21.612a.75.75 0 01.416 1.279l-3.046 2.97.719 4.192a.75.75 0 01-1.088.791L8 12.347l-3.766 1.98a.75.75 0 01-1.088-.79l.72-4.194L.818 6.374a.75.75 0 01.416-1.28l4.21-.611L7.327.668A.75.75 0 018 .25z"/>
        </svg>
        <text x="18" y="11" fill="#8b949e" font-size="12" font-family="-apple-system,BlinkMacSystemFont,'Segoe UI',Helvetica,Arial,sans-serif">1.6k</text>
      </g>
      <!-- Contributions -->
      <g transform="translate(160, 36)">
        <svg width="14" height="14" viewBox="0 0 16 16" fill="#8b949e">
          <path d="M1.643 3.143L.427 1.927A.25.25 0 000 2.104V5.75c0 .138.112.25.25.25h3.646a.25.25 0 00.177-.427L2.715 4.215a6.5 6.5 0 11-1.18 4.458.75.75 0 10-1.493.154 8.001 8.001 0 101.6-5.684zM7.75 4a.75.75 0 01.75.75v2.992l2.028.812a.75.75 0 01-.557 1.392l-2.5-1A.75.75 0 017 8.25v-3.5A.75.75 0 017.75 4z"/>
        </svg>
        <text x="18" y="11" fill="#8b949e" font-size="12" font-family="-apple-system,BlinkMacSystemFont,'Segoe UI',Helvetica,Arial,sans-serif">6.4k contributions</text>
      </g>
      <!-- Divider -->
      <line x1="20" y1="62" x2="430" y2="62" stroke="#21262d" stroke-width="1"/>
    </g>

    <g transform="translate(0, 105)">
      <!-- Rank badge -->
      <g transform="translate(20, 8)">
        <rect width="40" height="26" rx="13" fill="#69c46d" opacity="0.15"/>
        <text x="20" y="17" text-anchor="middle" fill="#69c46d" font-size="12" font-weight="700" font-family="-apple-system,BlinkMacSystemFont,'Segoe UI',Helvetica,Arial,sans-serif">A</text>
      </g>
      <!-- Repo name -->
      <text x="72" y="22" fill="#c9d1d9" font-size="14" font-weight="600" font-family="-apple-system,BlinkMacSystemFont,'Segoe UI',Helvetica,Arial,sans-serif">InsightSoftwareConsortium/ITK-Wasm</text>
      <!-- Stars -->
      <g transform="translate(72, 36)">
        <svg width="14" height="14" viewBox="0 0 16 16" fill="#8b949e">
          <path d="M8 .25a.75.75 0 01.673.418l1.882 3.815 4.21.612a.75.75 0 01.416 1.279l-3.046 2.97.719 4.192a.75.75 0 01-1.088.791L8 12.347l-3.766 1.98a.75.75 0 01-1.088-.79l.72-4.194L.818 6.374a.75.75 0 01.416-1.28l4.21-.611L7.327.668A.75.75 0 018 .25z"/>
        </svg>
        <text x="18" y="11" fill="#8b949e" font-size="12" font-family="-apple-system,BlinkMacSystemFont,'Segoe UI',Helvetica,Arial,sans-serif">224</text>
      </g>
      <!-- Contributions -->
      <g transform="translate(160, 36)">
        <svg width="14" height="14" viewBox="0 0 16 16" fill="#8b949e">
          <path d="M1.643 3.143L.427 1.927A.25.25 0 000 2.104V5.75c0 .138.112.25.25.25h3.646a.25.25 0 00.177-.427L2.715 4.215a6.5 6.5 0 11-1.18 4.458.75.75 0 10-1.493.154 8.001 8.001 0 101.6-5.684zM7.75 4a.75.75 0 01.75.75v2.992l2.028.812a.75.75 0 01-.557 1.392l-2.5-1A.75.75 0 017 8.25v-3.5A.75.75 0 017.75 4z"/>
        </svg>
        <text x="18" y="11" fill="#8b949e" font-size="12" font-family="-apple-system,BlinkMacSystemFont,'Segoe UI',Helvetica,Arial,sans-serif">5.3k contributions</text>
      </g>
      <!-- Divider -->
      <line x1="20" y1="62" x2="430" y2="62" stroke="#21262d" stroke-width="1"/>
    </g>

    <g transform="translate(0, 175)">
      <!-- Rank badge -->
      <g transform="translate(20, 8)">
        <rect width="40" height="26" rx="13" fill="#69c46d" opacity="0.15"/>
        <text x="20" y="17" text-anchor="middle" fill="#69c46d" font-size="12" font-weight="700" font-family="-apple-system,BlinkMacSystemFont,'Segoe UI',Helvetica,Arial,sans-serif">A</text>
      </g>
      <!-- Repo name -->
      <text x="72" y="22" fill="#c9d1d9" font-size="14" font-weight="600" font-family="-apple-system,BlinkMacSystemFont,'Segoe UI',Helvetica,Arial,sans-serif">Kitware/itk-vtk-viewer</text>
      <!-- Stars -->
      <g transform="translate(72, 36)">
        <svg width="14" height="14" viewBox="0 0 16 16" fill="#8b949e">
          <path d="M8 .25a.75.75 0 01.673.418l1.882 3.815 4.21.612a.75.75 0 01.416 1.279l-3.046 2.97.719 4.192a.75.75 0 01-1.088.791L8 12.347l-3.766 1.98a.75.75 0 01-1.088-.79l.72-4.194L.818 6.374a.75.75 0 01.416-1.28l4.21-.611L7.327.668A.75.75 0 018 .25z"/>
        </svg>
        <text x="18" y="11" fill="#8b949e" font-size="12" font-family="-apple-system,BlinkMacSystemFont,'Segoe UI',Helvetica,Arial,sans-serif">237</text>
      </g>
      <!-- Contributions -->
      <g transform="translate(160, 36)">
        <svg width="14" height="14" viewBox="0 0 16 16" fill="#8b949e">
          <path d="M1.643 3.143L.427 1.927A.25.25 0 000 2.104V5.75c0 .138.112.25.25.25h3.646a.25.25 0 00.177-.427L2.715 4.215a6.5 6.5 0 11-1.18 4.458.75.75 0 10-1.493.154 8.001 8.001 0 101.6-5.684zM7.75 4a.75.75 0 01.75.75v2.992l2.028.812a.75.75 0 01-.557 1.392l-2.5-1A.75.75 0 017 8.25v-3.5A.75.75 0 017.75 4z"/>
        </svg>
        <text x="18" y="11" fill="#8b949e" font-size="12" font-family="-apple-system,BlinkMacSystemFont,'Segoe UI',Helvetica,Arial,sans-serif">1.4k contributions</text>
      </g>
      <!-- Divider -->
      <line x1="20" y1="62" x2="430" y2="62" stroke="#21262d" stroke-width="1"/>
    </g>

    <g transform="translate(0, 245)">
      <!-- Rank badge -->
      <g transform="translate(20, 8)">
        <rect width="40" height="26" rx="13" fill="#6cb6ff" opacity="0.15"/>
        <text x="20" y="17" text-anchor="middle" fill="#6cb6ff" font-size="12" font-weight="700" font-family="-apple-system,BlinkMacSystemFont,'Segoe UI',Helvetica,Arial,sans-serif">B+</text>
      </g>
      <!-- Repo name -->
      <text x="72" y="22" fill="#c9d1d9" font-size="14" font-weight="600" font-family="-apple-system,BlinkMacSystemFont,'Segoe UI',Helvetica,Arial,sans-serif">fideus-labs/ngff-zarr</text>
      <!-- Stars -->
      <g transform="translate(72, 36)">
        <svg width="14" height="14" viewBox="0 0 16 16" fill="#8b949e">
          <path d="M8 .25a.75.75 0 01.673.418l1.882 3.815 4.21.612a.75.75 0 01.416 1.279l-3.046 2.97.719 4.192a.75.75 0 01-1.088.791L8 12.347l-3.766 1.98a.75.75 0 01-1.088-.79l.72-4.194L.818 6.374a.75.75 0 01.416-1.28l4.21-.611L7.327.668A.75.75 0 018 .25z"/>
        </svg>
        <text x="18" y="11" fill="#8b949e" font-size="12" font-family="-apple-system,BlinkMacSystemFont,'Segoe UI',Helvetica,Arial,sans-serif">66</text>
      </g>
      <!-- Contributions -->
      <g transform="translate(160, 36)">
        <svg width="14" height="14" viewBox="0 0 16 16" fill="#8b949e">
          <path d="M1.643 3.143L.427 1.927A.25.25 0 000 2.104V5.75c0 .138.112.25.25.25h3.646a.25.25 0 00.177-.427L2.715 4.215a6.5 6.5 0 11-1.18 4.458.75.75 0 10-1.493.154 8.001 8.001 0 101.6-5.684zM7.75 4a.75.75 0 01.75.75v2.992l2.028.812a.75.75 0 01-.557 1.392l-2.5-1A.75.75 0 017 8.25v-3.5A.75.75 0 017.75 4z"/>
        </svg>
        <text x="18" y="11" fill="#8b949e" font-size="12" font-family="-apple-system,BlinkMacSystemFont,'Segoe UI',Helvetica,Arial,sans-serif">1.1k contributions</text>
      </g>
      <!-- Divider -->
      <line x1="20" y1="62" x2="430" y2="62" stroke="#21262d" stroke-width="1"/>
    </g>

    <g transform="translate(0, 315)">
      <!-- Rank badge -->
      <g transform="translate(20, 8)">
        <rect width="40" height="26" rx="13" fill="#6cb6ff" opacity="0.15"/>
        <text x="20" y="17" text-anchor="middle" fill="#6cb6ff" font-size="12" font-weight="700" font-family="-apple-system,BlinkMacSystemFont,'Segoe UI',Helvetica,Arial,sans-serif">B+</text>
      </g>
      <!-- Repo name -->
      <text x="72" y="22" fill="#c9d1d9" font-size="14" font-weight="600" font-family="-apple-system,BlinkMacSystemFont,'Segoe UI',Helvetica,Arial,sans-serif">InsightSoftwareConsortium/ITKSphinx...</text>
      <!-- Stars -->
      <g transform="translate(72, 36)">
        <svg width="14" height="14" viewBox="0 0 16 16" fill="#8b949e">
          <path d="M8 .25a.75.75 0 01.673.418l1.882 3.815 4.21.612a.75.75 0 01.416 1.279l-3.046 2.97.719 4.192a.75.75 0 01-1.088.791L8 12.347l-3.766 1.98a.75.75 0 01-1.088-.79l.72-4.194L.818 6.374a.75.75 0 01.416-1.28l4.21-.611L7.327.668A.75.75 0 018 .25z"/>
        </svg>
        <text x="18" y="11" fill="#8b949e" font-size="12" font-family="-apple-system,BlinkMacSystemFont,'Segoe UI',Helvetica,Arial,sans-serif">59</text>
      </g>
      <!-- Contributions -->
      <g transform="translate(160, 36)">
        <svg width="14" height="14" viewBox="0 0 16 16" fill="#8b949e">
          <path d="M1.643 3.143L.427 1.927A.25.25 0 000 2.104V5.75c0 .138.112.25.25.25h3.646a.25.25 0 00.177-.427L2.715 4.215a6.5 6.5 0 11-1.18 4.458.75.75 0 10-1.493.154 8.001 8.001 0 101.6-5.684zM7.75 4a.75.75 0 01.75.75v2.992l2.028.812a.75.75 0 01-.557 1.392l-2.5-1A.75.75 0 017 8.25v-3.5A.75.75 0 017.75 4z"/>
        </svg>
        <text x="18" y="11" fill="#8b949e" font-size="12" font-family="-apple-system,BlinkMacSystemFont,'Segoe UI',Helvetica,Arial,sans-serif">971 contributions</text>
      </g>
      <!-- Divider -->
      
    </g>
  </g>
</svg>